<svg width="14" height="14" viewBox="0 0 14 14" fill="none" xmlns="http://www.w3.org/2000/svg">
<path fill-rule="evenodd" clip-rule="evenodd" d="M9.59297 2.33333C10.297 2.33333 10.9742 2.60815 11.4725 3.10126C11.9712 3.59333 12.25 4.25704 12.25 4.95185V9.04815C12.25 10.4948 11.0582 11.6667 9.59297 11.6667H4.4065C2.94122 11.6667 1.75 10.4948 1.75 9.04815V4.95185C1.75 3.50518 2.93597 2.33333 4.4065 2.33333H9.59297ZM10.4283 5.72444L10.4703 5.68296C10.5958 5.53259 10.5958 5.31481 10.4645 5.16444C10.3916 5.08718 10.2913 5.04 10.1868 5.02963C10.0766 5.02392 9.97156 5.06074 9.89228 5.13333L7.52506 7C7.22056 7.24941 6.78428 7.24941 6.47506 7L4.11256 5.13333C3.94928 5.01407 3.72353 5.02963 3.58756 5.16963C3.44581 5.30963 3.43006 5.53259 3.55028 5.68815L3.61906 5.75555L6.00781 7.59629C6.30181 7.82444 6.65828 7.94889 7.03156 7.94889C7.40378 7.94889 7.76656 7.82444 8.06003 7.59629L10.4283 5.72444Z" fill="#2196F3"/>
</svg>
