<svg width="364" height="364" viewBox="0 0 364 364" fill="none" xmlns="http://www.w3.org/2000/svg">
<path d="M320.841 47.7185H0.503095C0.368649 47.7155 0.240718 47.6598 0.146688 47.5635C0.0526576 47.4671 0 47.3377 0 47.2029C0 47.0681 0.0526576 46.9386 0.146688 46.8423C0.240718 46.7459 0.368649 46.6902 0.503095 46.6873H320.841C320.975 46.6902 321.103 46.7459 321.197 46.8423C321.292 46.9386 321.344 47.0681 321.344 47.2029C321.344 47.3377 321.292 47.4671 321.197 47.5635C321.103 47.6598 320.975 47.7155 320.841 47.7185Z" fill="#CACACA"/>
<path d="M11.8283 40.4971C14.8851 40.4971 17.3631 37.9566 17.3631 34.8228C17.3631 31.6889 14.8851 29.1484 11.8283 29.1484C8.77148 29.1484 6.29346 31.6889 6.29346 34.8228C6.29346 37.9566 8.77148 40.4971 11.8283 40.4971Z" fill="#3F3D56"/>
<path d="M30.9484 40.4971C34.0052 40.4971 36.4832 37.9566 36.4832 34.8228C36.4832 31.6889 34.0052 29.1484 30.9484 29.1484C27.8916 29.1484 25.4136 31.6889 25.4136 34.8228C25.4136 37.9566 27.8916 40.4971 30.9484 40.4971Z" fill="#3F3D56"/>
<path d="M50.069 40.4971C53.1258 40.4971 55.6038 37.9566 55.6038 34.8228C55.6038 31.6889 53.1258 29.1484 50.069 29.1484C47.0122 29.1484 44.5342 31.6889 44.5342 34.8228C44.5342 37.9566 47.0122 40.4971 50.069 40.4971Z" fill="#3F3D56"/>
<path d="M309.383 30.5549H295.801C295.532 30.5603 295.276 30.6713 295.087 30.8641C294.899 31.057 294.793 31.3162 294.793 31.5863C294.793 31.8563 294.899 32.1156 295.087 32.3084C295.276 32.5012 295.532 32.6123 295.801 32.6176H309.383C309.652 32.6123 309.909 32.5012 310.097 32.3084C310.286 32.1156 310.391 31.8563 310.391 31.5863C310.391 31.3162 310.286 31.057 310.097 30.8641C309.909 30.6713 309.652 30.5603 309.383 30.5549Z" fill="#3F3D56"/>
<path d="M309.383 34.4263H295.801C295.532 34.4316 295.276 34.5426 295.087 34.7355C294.899 34.9283 294.793 35.1876 294.793 35.4576C294.793 35.7277 294.899 35.9869 295.087 36.1798C295.276 36.3726 295.532 36.4836 295.801 36.489H309.383C309.652 36.4836 309.909 36.3726 310.097 36.1798C310.286 35.9869 310.391 35.7277 310.391 35.4576C310.391 35.1876 310.286 34.9283 310.097 34.7355C309.909 34.5426 309.652 34.4316 309.383 34.4263Z" fill="#3F3D56"/>
<path d="M309.383 38.2925H295.801C295.532 38.2978 295.276 38.4089 295.087 38.6017C294.899 38.7945 294.793 39.0538 294.793 39.3238C294.793 39.5939 294.899 39.8531 295.087 40.046C295.276 40.2388 295.532 40.3498 295.801 40.3552H309.383C309.652 40.3498 309.909 40.2388 310.097 40.046C310.286 39.8531 310.391 39.5939 310.391 39.3238C310.391 39.0538 310.286 38.7945 310.097 38.6017C309.909 38.4089 309.652 38.2978 309.383 38.2925Z" fill="#3F3D56"/>
<path d="M304.312 65.1367H12.5378C10.9222 65.1391 9.37345 65.7838 8.23104 66.9295C7.08863 68.0752 6.44577 69.6283 6.44336 71.2486V72.2342C6.44577 73.8544 7.08863 75.4076 8.23104 76.5532C9.37345 77.6989 10.9222 78.3436 12.5378 78.346H304.312C305.927 78.3436 307.476 77.6989 308.619 76.5532C309.761 75.4076 310.404 73.8544 310.406 72.2342V71.2486C310.404 69.6283 309.761 68.0752 308.619 66.9295C307.476 65.7838 305.927 65.1391 304.312 65.1367Z" fill="#F0F0F0"/>
<path d="M47.7492 74.1801H19.9756C19.3542 74.1792 18.7586 73.931 18.3195 73.49C17.8804 73.049 17.6338 72.4513 17.6338 71.8281C17.6338 71.2049 17.8804 70.6072 18.3195 70.1662C18.7586 69.7252 19.3542 69.477 19.9756 69.4761H47.7492C50.7737 69.4338 50.804 74.2228 47.7492 74.1801Z" fill="white"/>
<path d="M130.833 74.1801H103.059C102.438 74.1792 101.842 73.931 101.403 73.49C100.964 73.049 100.717 72.4513 100.717 71.8281C100.717 71.2049 100.964 70.6072 101.403 70.1662C101.842 69.7252 102.438 69.477 103.059 69.4761H130.833C133.857 69.4338 133.887 74.2228 130.833 74.1801Z" fill="white"/>
<path d="M213.916 74.1801H186.142C185.521 74.1792 184.925 73.931 184.486 73.49C184.047 73.049 183.8 72.4513 183.8 71.8281C183.8 71.2049 184.047 70.6072 184.486 70.1662C184.925 69.7252 185.521 69.477 186.142 69.4761H213.916C216.94 69.4338 216.97 74.2228 213.916 74.1801Z" fill="white"/>
<path d="M292.693 74.4341H264.919C264.297 74.4341 263.7 74.1863 263.261 73.7453C262.821 73.3042 262.574 72.7059 262.574 72.0821C262.574 71.4584 262.821 70.8601 263.261 70.419C263.7 69.9779 264.297 69.7301 264.919 69.7301H292.693C295.717 69.6878 295.747 74.4769 292.693 74.4341Z" fill="#2196F3"/>
<path d="M249.36 65.1367H248.347V78.346H249.36V65.1367Z" fill="white"/>
<path d="M144.516 260.641H25.4366C24.3756 260.639 23.3583 260.216 22.6081 259.464C21.8578 258.711 21.4358 257.691 21.4346 256.627V239.137C21.4358 238.073 21.8578 237.053 22.6081 236.301C23.3583 235.548 24.3756 235.125 25.4366 235.124H144.516C145.577 235.125 146.594 235.548 147.344 236.301C148.094 237.053 148.516 238.073 148.518 239.137V256.627C148.516 257.691 148.094 258.711 147.344 259.464C146.594 260.216 145.577 260.639 144.516 260.641Z" fill="#F0F0F0"/>
<path d="M132.946 257.934H28.1368C27.0757 257.932 26.0585 257.509 25.3083 256.757C24.558 256.004 24.136 254.984 24.1348 253.92V241.847C24.136 240.783 24.558 239.763 25.3083 239.01C26.0585 238.258 27.0757 237.835 28.1368 237.833H141.816C142.877 237.835 143.895 238.258 144.645 239.01C145.395 239.763 145.817 240.783 145.818 241.847V245.024C145.814 248.447 144.457 251.728 142.044 254.148C139.631 256.568 136.359 257.93 132.946 257.934Z" fill="white"/>
<path d="M96.7927 246.638H48.932C48.6583 246.638 48.3958 246.529 48.2022 246.335C48.0086 246.141 47.8999 245.878 47.8999 245.603C47.8999 245.329 48.0086 245.065 48.2022 244.871C48.3958 244.677 48.6583 244.568 48.932 244.568H96.7927C97.0664 244.568 97.329 244.677 97.5225 244.871C97.7161 245.065 97.8248 245.329 97.8248 245.603C97.8248 245.878 97.7161 246.141 97.5225 246.335C97.329 246.529 97.0664 246.638 96.7927 246.638Z" fill="#E6E6E6"/>
<path d="M121.02 250.872H48.9319C48.7961 250.872 48.6617 250.845 48.5362 250.793C48.4107 250.742 48.2966 250.665 48.2006 250.569C48.1045 250.473 48.0283 250.359 47.9762 250.233C47.9242 250.107 47.8975 249.973 47.8975 249.837C47.8975 249.7 47.9242 249.566 47.9762 249.44C48.0283 249.314 48.1045 249.2 48.2006 249.104C48.2966 249.008 48.4107 248.932 48.5362 248.88C48.6617 248.828 48.7961 248.801 48.9319 248.802H121.02C121.294 248.802 121.556 248.911 121.749 249.105C121.942 249.3 122.05 249.562 122.05 249.837C122.05 250.111 121.942 250.374 121.749 250.568C121.556 250.762 121.294 250.871 121.02 250.872Z" fill="#E6E6E6"/>
<path d="M152.122 215.113H16.3472C15.2638 215.112 14.2251 214.68 13.459 213.912C12.6929 213.143 12.262 212.102 12.2607 211.015V106.932C12.262 105.846 12.6929 104.804 13.459 104.036C14.2251 103.267 15.2638 102.835 16.3472 102.834H152.122C153.206 102.835 154.244 103.267 155.011 104.036C155.777 104.804 156.208 105.846 156.209 106.932V211.015C156.208 212.102 155.777 213.143 155.011 213.912C154.244 214.68 153.206 215.112 152.122 215.113Z" fill="white"/>
<path d="M152.122 215.621H16.347C15.1293 215.62 13.9618 215.134 13.1008 214.27C12.2397 213.407 11.7553 212.236 11.7539 211.015V106.932C11.7553 105.711 12.2397 104.54 13.1008 103.676C13.9618 102.813 15.1293 102.327 16.347 102.326H152.122C153.34 102.327 154.507 102.813 155.368 103.676C156.229 104.54 156.714 105.711 156.715 106.932V211.015C156.714 212.236 156.229 213.407 155.368 214.27C154.507 215.134 153.34 215.62 152.122 215.621ZM16.347 103.342C15.3979 103.343 14.488 103.722 13.8169 104.395C13.1458 105.068 12.7682 105.98 12.7671 106.932V211.015C12.7682 211.967 13.1457 212.879 13.8168 213.552C14.4879 214.225 15.3979 214.604 16.347 214.605H152.122C153.071 214.604 153.981 214.225 154.652 213.552C155.323 212.879 155.701 211.967 155.702 211.015V106.932C155.701 105.98 155.323 105.068 154.652 104.395C153.981 103.722 153.071 103.343 152.122 103.342L16.347 103.342Z" fill="#F0F0F0"/>
<path d="M12.5742 195.299V211.015C12.5757 212.018 12.9737 212.98 13.6809 213.689C14.3881 214.398 15.3469 214.797 16.347 214.799H152.122C153.122 214.797 154.081 214.398 154.788 213.689C155.496 212.98 155.894 212.018 155.895 211.015V195.299H12.5742Z" fill="#F0F0F0"/>
<path d="M13.8538 103.497L13.3076 104.353L155.622 195.727L156.168 194.871L13.8538 103.497Z" fill="#F0F0F0"/>
<path d="M156.023 103.497L13.709 194.871L14.2552 195.727L156.57 104.353L156.023 103.497Z" fill="#F0F0F0"/>
<path d="M276.284 327.774L270.007 327.774L267.021 303.495L276.285 303.495L276.284 327.774Z" fill="#A0616A"/>
<path d="M276.116 325.717L269.419 322.989L269.221 322.908L265.523 325.717C263.494 325.717 261.542 326.502 260.077 327.91C258.611 329.318 257.743 331.238 257.656 333.272C257.645 333.384 257.646 333.5 257.646 333.617V333.876H277.884V325.717H276.116Z" fill="#2F2E41"/>
<path d="M261.584 321.916L255.663 324.006L244.811 302.096L253.549 299.013L261.584 321.916Z" fill="#A0616A"/>
<path d="M260.746 320.031L253.525 319.687L253.312 319.676L250.753 323.557C248.839 324.233 247.258 325.623 246.341 327.439C245.424 329.255 245.242 331.355 245.832 333.303C245.859 333.411 245.898 333.522 245.937 333.632L246.022 333.876L265.114 327.14L262.414 319.443L260.746 320.031Z" fill="#2F2E41"/>
<path d="M278.502 223.086C284.244 222.863 277.131 268.755 277.131 268.755C277.131 268.755 279.212 309.046 278.771 311.16C278.33 313.275 278.715 318.977 278.715 318.977C277.59 316.924 265.983 318.474 265.983 318.474L264.404 277.639L256.342 244.921L245.165 266.852L255.878 300.516C255.878 300.516 260.216 304.542 259.755 306.132C259.293 307.723 247.93 311.311 245.842 311.392C243.754 311.473 244.697 308.815 244.595 306.198C244.494 303.58 234.668 279.319 231.212 271.065C227.756 262.81 230.443 251.171 232.207 242.713C233.971 234.256 243.253 218.383 243.253 218.383C254.774 205.352 272.76 223.31 278.502 223.086Z" fill="#2F2E41"/>
<path d="M208.521 186C208.836 186.602 209.278 187.128 209.817 187.541C210.357 187.954 210.979 188.243 211.642 188.388C212.305 188.533 212.991 188.531 213.653 188.381C214.315 188.231 214.936 187.938 215.472 187.521L229.281 196.557L229.239 187.964L216.132 180.701C215.375 179.844 214.33 179.295 213.196 179.159C212.063 179.022 210.918 179.307 209.98 179.96C209.042 180.613 208.375 181.589 208.106 182.702C207.837 183.815 207.985 184.988 208.521 186Z" fill="#A0616A"/>
<path d="M275.52 230.443C261.279 230.444 253.431 227.585 249.264 225.032C244.168 221.911 243.296 218.62 243.262 218.481L243.251 218.441L243.747 212.182L243.964 211.694C244.964 209.451 245.097 206.915 244.336 204.578L244.321 204.53L244.325 204.48L247.655 161.171L259.438 157.301L262.866 153.846L278.129 153.624L280.255 157.948L292.288 162.491L286.376 197.778L283.543 202.677L284.683 208.013L284.675 208.061L280.957 230.313L280.753 230.322C278.919 230.404 277.175 230.445 275.52 230.443Z" fill="#3F3D56"/>
<path d="M238.678 203.424L233.091 200.103L232.741 199.596C232.03 198.569 231.089 197.725 229.993 197.129C228.897 196.534 227.678 196.204 226.432 196.167L226.367 196.165L218.672 191.629L221.862 182.258L233.924 185.832L242.334 164.878C242.795 163.727 243.567 162.727 244.561 161.99C245.556 161.252 246.735 160.806 247.967 160.7C249.2 160.594 250.437 160.834 251.542 161.391C252.647 161.949 253.577 162.803 254.226 163.858C254.892 164.962 255.237 166.23 255.223 167.519V181.23L255.173 181.298L238.678 203.424Z" fill="#3F3D56"/>
<path d="M276.029 222.384C276.148 221.715 276.412 221.079 276.803 220.523C277.194 219.967 277.701 219.504 278.29 219.166C278.879 218.828 279.534 218.623 280.21 218.567C280.886 218.51 281.566 218.603 282.202 218.838L292.667 206.06L295.201 214.268L284.875 225.144C284.41 226.19 283.578 227.029 282.537 227.5C281.497 227.972 280.32 228.045 279.229 227.705C278.139 227.365 277.211 226.635 276.621 225.654C276.031 224.674 275.82 223.51 276.029 222.384Z" fill="#A0616A"/>
<path d="M291.675 220.769L284.726 213.8L289.15 202.992L295.56 194.213C288.729 190.878 283.601 182.978 279.886 176.438L279.844 176.364L280.769 169.097C280.986 167.397 281.665 165.79 282.732 164.452C283.66 163.288 284.852 162.364 286.209 161.757C287.566 161.15 289.048 160.877 290.531 160.962C292.015 161.047 293.456 161.487 294.735 162.246C296.014 163.004 297.094 164.058 297.884 165.32L310.342 193.095L310.202 193.304L300.181 210.435L297.446 212.214L291.675 220.769Z" fill="#3F3D56"/>
<path d="M281.456 139.056C280.998 142.405 279.233 145.435 276.549 147.479C273.864 149.524 270.481 150.416 267.141 149.96C263.801 149.505 260.778 147.738 258.736 145.048C256.695 142.359 255.801 138.966 256.252 135.616L256.277 135.435C256.804 132.13 258.605 129.165 261.292 127.18C263.979 125.195 267.337 124.348 270.641 124.824C273.944 125.299 276.93 127.057 278.952 129.72C280.975 132.382 281.873 135.735 281.452 139.056L281.456 139.056Z" fill="#A0616A"/>
<path d="M278.219 145.626C278.872 144.295 279.543 142.867 279.359 141.395C279.176 139.924 277.737 138.517 276.324 138.955C275.479 139.216 274.84 140.053 273.957 140.096C272.742 140.155 272.045 138.76 271.667 137.6L270.126 132.877C268.647 134.033 266.931 134.848 265.102 135.262C263.272 135.677 261.374 135.681 259.543 135.275C258.112 134.947 256.667 134.308 255.828 133.101C254.989 131.894 254.994 130.021 256.145 129.108C256.709 128.661 257.46 128.491 257.999 128.013C258.334 127.717 258.565 127.32 258.657 126.883C258.749 126.445 258.699 125.989 258.513 125.582C258.327 125.175 258.015 124.839 257.623 124.624C257.232 124.408 256.782 124.325 256.34 124.386L260.219 123.9L259.063 121.804C259.503 122.104 260 122.308 260.522 122.404C261.045 122.501 261.582 122.486 262.099 122.362C263.142 122.174 264.125 121.743 265.146 121.456C267.621 120.822 270.234 121.015 272.589 122.007C274.944 122.999 276.912 124.734 278.194 126.95C279.148 126.63 280.177 126.609 281.144 126.889C282.111 127.169 282.97 127.737 283.608 128.518C284.646 129.839 284.928 131.603 284.969 133.285C285.044 136.602 284.323 139.889 282.866 142.867C282.448 143.813 281.848 144.667 281.1 145.38C280.723 145.733 280.274 146 279.784 146.161C279.293 146.321 278.774 146.373 278.262 146.311" fill="#2F2E41"/>
<path d="M72.127 132.503C72.3345 135.473 73.2072 138.359 74.6801 140.944C77.7842 146.412 83.1074 150.37 88.8407 152.723C96.0035 155.662 103.988 155.753 111.59 155.097C118.65 154.488 125.639 153.077 132.725 152.786C138.205 152.611 143.691 152.742 149.157 153.18C159.761 153.934 170.321 155.335 180.813 157.033C183.654 157.487 186.49 157.975 189.319 158.496C189.587 158.52 189.851 158.569 190.11 158.644C190.161 158.665 190.244 158.648 190.291 158.678C190.376 158.732 189.945 158.541 190.206 158.758C190.57 159.141 190.895 159.56 191.175 160.008L195.05 165.009C196.161 166.443 197.192 168.185 198.629 169.316C199.641 170.1 200.863 170.566 202.139 170.656C203.416 170.745 204.69 170.453 205.802 169.817C206.963 169.081 207.889 168.027 208.469 166.778C209.36 165.139 210.424 163.6 211.641 162.187C216.251 156.794 222.658 153.476 228.017 148.938C230.613 146.83 232.828 144.291 234.567 141.43C236.05 138.842 236.972 135.969 237.273 132.999C237.914 126.968 236.069 120.817 232.965 115.687C229.589 110.174 224.739 105.722 218.965 102.836C212.48 99.5225 205.303 97.9085 198.109 97.1042C190.472 96.2502 182.745 96.2529 175.07 96.3391C166.456 96.4352 157.859 96.8151 149.276 97.4787C140.682 98.1458 132.122 99.094 123.596 100.323C115.414 101.503 107.133 102.732 99.1248 104.82C92.0501 106.664 84.9953 109.546 79.7124 114.768C75.0152 119.411 71.7481 125.765 72.127 132.503Z" fill="#2196F3"/>
<path d="M111.673 134.421C111.323 134.406 110.98 134.317 110.666 134.162C110.352 134.007 110.074 133.788 109.848 133.52C109.622 133.252 109.454 132.939 109.355 132.603C109.255 132.266 109.227 131.912 109.27 131.564L109.452 130.129C109.487 129.853 109.454 129.574 109.357 129.314C109.26 129.054 109.102 128.822 108.896 128.637L107.821 127.673C107.469 127.358 107.212 126.95 107.079 126.496C106.946 126.042 106.942 125.559 107.069 125.103C107.195 124.647 107.446 124.236 107.793 123.915C108.141 123.595 108.57 123.378 109.034 123.29L110.451 123.02C110.723 122.968 110.978 122.851 111.195 122.678C111.411 122.506 111.582 122.283 111.694 122.029L112.276 120.705C112.466 120.272 112.774 119.901 113.163 119.634C113.553 119.367 114.009 119.214 114.481 119.194C114.952 119.173 115.42 119.286 115.831 119.518C116.243 119.75 116.581 120.093 116.808 120.508L117.501 121.776C117.634 122.019 117.825 122.227 118.055 122.38C118.286 122.533 118.551 122.628 118.826 122.656L120.261 122.801C120.73 122.849 121.177 123.028 121.551 123.317C121.925 123.606 122.21 123.994 122.375 124.437C122.541 124.881 122.579 125.362 122.486 125.826C122.392 126.29 122.172 126.718 121.848 127.063L120.86 128.117C120.671 128.318 120.533 128.564 120.459 128.831C120.385 129.098 120.377 129.379 120.435 129.65L120.74 131.065C120.84 131.528 120.809 132.009 120.65 132.454C120.491 132.9 120.211 133.292 119.842 133.587C119.473 133.881 119.029 134.066 118.56 134.121C118.091 134.175 117.617 134.097 117.19 133.896L115.885 133.279C115.635 133.16 115.36 133.104 115.083 133.116C114.807 133.128 114.537 133.208 114.298 133.348L113.052 134.076C112.634 134.32 112.156 134.44 111.673 134.421Z" fill="white"/>
<path d="M131.985 133.83C131.342 133.8 130.733 133.528 130.281 133.067C130.008 132.777 129.805 132.429 129.686 132.048C129.567 131.668 129.536 131.265 129.595 130.871L129.762 129.554C129.798 129.273 129.765 128.989 129.666 128.724C129.567 128.459 129.406 128.222 129.196 128.034L128.199 127.14C127.905 126.889 127.67 126.574 127.513 126.22C127.355 125.866 127.278 125.481 127.287 125.094C127.309 124.52 127.525 123.97 127.899 123.534C128.273 123.099 128.784 122.804 129.347 122.698L130.747 122.431C131.024 122.379 131.284 122.259 131.505 122.083C131.726 121.907 131.9 121.68 132.014 121.421L132.536 120.232C132.722 119.781 133.03 119.39 133.423 119.103C133.817 118.816 134.282 118.643 134.768 118.604C135.244 118.576 135.718 118.685 136.134 118.918C136.55 119.15 136.893 119.496 137.121 119.916L137.806 121.17C137.942 121.418 138.135 121.629 138.371 121.785C138.606 121.941 138.875 122.038 139.156 122.066L140.486 122.201C140.871 122.231 141.246 122.347 141.581 122.541C141.916 122.735 142.204 123.001 142.423 123.321C142.742 123.798 142.889 124.37 142.842 124.942C142.794 125.515 142.554 126.054 142.161 126.472L141.184 127.513C140.991 127.719 140.851 127.968 140.776 128.24C140.7 128.513 140.692 128.799 140.751 129.075L141.033 130.381C141.123 130.758 141.129 131.151 141.049 131.53C140.97 131.909 140.808 132.266 140.574 132.575C140.221 133.029 139.724 133.349 139.166 133.481C138.607 133.614 138.02 133.551 137.502 133.304L136.211 132.694C135.956 132.574 135.676 132.517 135.395 132.529C135.114 132.542 134.84 132.622 134.596 132.764L133.364 133.484C132.947 133.729 132.468 133.849 131.985 133.83Z" fill="white"/>
<path d="M152.35 133.743C152 133.728 151.658 133.639 151.344 133.484C151.029 133.329 150.751 133.111 150.525 132.842C150.299 132.574 150.132 132.261 150.032 131.925C149.933 131.588 149.904 131.234 149.947 130.886L150.129 129.451C150.164 129.176 150.131 128.896 150.035 128.636C149.938 128.376 149.779 128.144 149.573 127.959L148.498 126.995C148.146 126.68 147.889 126.272 147.756 125.818C147.623 125.364 147.62 124.881 147.746 124.425C147.872 123.969 148.123 123.558 148.471 123.237C148.818 122.917 149.248 122.7 149.711 122.612L151.129 122.342C151.4 122.29 151.655 122.173 151.872 122.001C152.088 121.828 152.26 121.605 152.371 121.352L152.953 120.027C153.143 119.594 153.451 119.223 153.841 118.956C154.23 118.689 154.687 118.537 155.158 118.516C155.63 118.496 156.097 118.608 156.509 118.84C156.92 119.072 157.258 119.415 157.485 119.83L158.179 121.098C158.312 121.341 158.502 121.549 158.733 121.702C158.963 121.855 159.228 121.95 159.503 121.978L160.938 122.124C161.407 122.171 161.854 122.35 162.228 122.639C162.602 122.928 162.887 123.316 163.053 123.76C163.218 124.203 163.256 124.684 163.163 125.148C163.07 125.612 162.849 126.041 162.526 126.385L161.537 127.439C161.348 127.641 161.21 127.886 161.136 128.153C161.062 128.42 161.054 128.702 161.113 128.973L161.418 130.387C161.517 130.85 161.486 131.331 161.327 131.777C161.169 132.222 160.889 132.614 160.519 132.909C160.15 133.203 159.706 133.388 159.237 133.443C158.768 133.498 158.294 133.42 157.867 133.218L156.562 132.601C156.312 132.483 156.037 132.427 155.76 132.439C155.484 132.45 155.215 132.53 154.975 132.67L153.729 133.398C153.312 133.643 152.833 133.763 152.35 133.743Z" fill="white"/>
<path opacity="0.2" d="M172.159 133.205C171.809 133.189 171.467 133.1 171.153 132.945C170.838 132.79 170.56 132.572 170.334 132.303C170.108 132.035 169.941 131.722 169.841 131.386C169.742 131.049 169.713 130.695 169.756 130.347L169.938 128.912C169.973 128.637 169.94 128.357 169.844 128.097C169.747 127.837 169.588 127.605 169.382 127.42L168.307 126.457C167.955 126.141 167.698 125.733 167.565 125.279C167.432 124.825 167.429 124.343 167.555 123.886C167.681 123.43 167.932 123.019 168.28 122.698C168.627 122.378 169.057 122.161 169.521 122.073L170.938 121.803C171.209 121.751 171.464 121.634 171.681 121.462C171.897 121.289 172.069 121.066 172.18 120.813L172.762 119.488C172.952 119.055 173.26 118.684 173.65 118.417C174.039 118.15 174.496 117.998 174.967 117.977C175.439 117.957 175.906 118.069 176.318 118.301C176.729 118.533 177.067 118.876 177.294 119.291L177.988 120.559C178.121 120.802 178.311 121.01 178.542 121.163C178.772 121.317 179.037 121.411 179.312 121.439L180.747 121.585C181.217 121.632 181.663 121.811 182.037 122.1C182.411 122.389 182.697 122.777 182.862 123.221C183.027 123.664 183.065 124.145 182.972 124.609C182.879 125.073 182.658 125.502 182.335 125.846L181.347 126.9C181.157 127.102 181.019 127.347 180.945 127.614C180.871 127.881 180.863 128.163 180.922 128.434L181.227 129.848C181.326 130.311 181.295 130.792 181.136 131.238C180.978 131.683 180.698 132.076 180.328 132.37C179.959 132.665 179.515 132.85 179.046 132.904C178.577 132.959 178.103 132.881 177.676 132.679L176.371 132.062C176.121 131.944 175.846 131.888 175.57 131.9C175.293 131.912 175.024 131.991 174.785 132.131L173.538 132.859C173.121 133.104 172.642 133.224 172.159 133.205Z" fill="black"/>
<path opacity="0.2" d="M191.968 132.666C191.618 132.65 191.275 132.562 190.961 132.406C190.647 132.251 190.368 132.033 190.143 131.764C189.917 131.496 189.749 131.183 189.65 130.847C189.55 130.51 189.522 130.157 189.565 129.808L189.747 128.373C189.782 128.098 189.749 127.818 189.652 127.558C189.555 127.298 189.397 127.066 189.191 126.881L188.116 125.918C187.764 125.602 187.507 125.194 187.374 124.74C187.241 124.286 187.237 123.804 187.364 123.347C187.49 122.891 187.741 122.48 188.088 122.159C188.436 121.839 188.865 121.622 189.329 121.534L190.746 121.264C191.018 121.212 191.273 121.095 191.489 120.923C191.706 120.75 191.877 120.527 191.989 120.274L192.571 118.949C192.761 118.516 193.068 118.145 193.458 117.878C193.848 117.611 194.304 117.459 194.776 117.438C195.247 117.418 195.715 117.53 196.126 117.762C196.538 117.994 196.876 118.337 197.103 118.752L197.796 120.02C197.929 120.264 198.119 120.471 198.35 120.624C198.581 120.778 198.845 120.872 199.121 120.9L200.556 121.046C201.025 121.093 201.472 121.272 201.846 121.561C202.22 121.85 202.505 122.238 202.67 122.682C202.836 123.125 202.874 123.606 202.781 124.07C202.687 124.534 202.467 124.963 202.143 125.307L201.155 126.361C200.965 126.563 200.828 126.808 200.754 127.075C200.68 127.342 200.672 127.624 200.73 127.895L201.035 129.309C201.135 129.772 201.104 130.253 200.945 130.699C200.786 131.144 200.506 131.537 200.137 131.831C199.768 132.126 199.323 132.311 198.855 132.365C198.386 132.42 197.911 132.342 197.485 132.14L196.18 131.523C195.93 131.405 195.655 131.349 195.378 131.361C195.102 131.373 194.832 131.452 194.593 131.592L193.347 132.32C192.929 132.565 192.451 132.685 191.968 132.666Z" fill="black"/>
<path d="M318.169 302.159L318.748 289.092C324.789 285.854 331.527 284.144 338.376 284.109C328.949 291.839 330.127 306.738 323.736 317.133C321.718 320.359 319.002 323.089 315.788 325.119C312.575 327.15 308.948 328.43 305.174 328.863L297.285 333.707C296.203 327.655 296.442 321.44 297.985 315.489C299.528 309.539 302.34 303.994 306.226 299.238C308.432 296.592 310.962 294.234 313.755 292.222C315.645 297.218 318.169 302.159 318.169 302.159Z" fill="#F2F2F2"/>
<path d="M363.397 334.852H151.949C151.789 334.852 151.636 334.788 151.523 334.674C151.41 334.561 151.346 334.407 151.346 334.247C151.346 334.086 151.41 333.932 151.523 333.819C151.636 333.705 151.789 333.642 151.949 333.642H363.397C363.557 333.642 363.71 333.705 363.824 333.819C363.937 333.932 364 334.086 364 334.247C364 334.407 363.937 334.561 363.824 334.674C363.71 334.788 363.557 334.852 363.397 334.852Z" fill="#CACACA"/>
</svg>
